name 900006_25EmgEnv.mot
datacolumns 51
datarows 10
range 0.17592593 0.18425925
endheader

                time	   rect_fem_r_emgRec	   rect_fem_l_emgRec	   med_hams_r_emgRec	   med_hams_l_emgRec	   lat_hams_r_emgRec	   lat_hams_l_emgRec	    tib_ant_r_emgRec	    tib_ant_l_emgRec	    gas_sol_r_emgRec	    gas_sol_l_emgRec	   rect_fem_r_emgEnv	   rect_fem_l_emgEnv	   med_hams_r_emgEnv	   med_hams_l_emgEnv	   lat_hams_r_emgEnv	   lat_hams_l_emgEnv	    tib_ant_r_emgEnv	    tib_ant_l_emgEnv	    gas_sol_r_emgEnv	    gas_sol_l_emgEnv	   rect_fem_r_emgAve	   rect_fem_l_emgAve	   med_hams_r_emgAve	   med_hams_l_emgAve	   lat_hams_r_emgAve	   lat_hams_l_emgAve	    tib_ant_r_emgAve	    tib_ant_l_emgAve	    gas_sol_r_emgAve	    gas_sol_l_emgAve	   rect_fem_r_emgSDp	   rect_fem_l_emgSDp	   med_hams_r_emgSDp	   med_hams_l_emgSDp	   lat_hams_r_emgSDp	   lat_hams_l_emgSDp	    tib_ant_r_emgSDp	    tib_ant_l_emgSDp	    gas_sol_r_emgSDp	    gas_sol_l_emgSDp	   rect_fem_r_emgSDm	   rect_fem_l_emgSDm	   med_hams_r_emgSDm	   med_hams_l_emgSDm	   lat_hams_r_emgSDm	   lat_hams_l_emgSDm	    tib_ant_r_emgSDm	    tib_ant_l_emgSDm	    gas_sol_r_emgSDm	    gas_sol_l_emgSDm	
          0.17592593	          0.04835896	          0.06076201	          0.04504794	          0.02117334	          0.28480255	          0.00487884	          0.00056943	          0.18872554	          0.01093701	          0.22215316	          0.03687384	          0.23405954	          0.07417803	          0.04361004	          0.57767836	          0.02470460	          0.03200142	          0.46725241	          0.02397364	          0.41997447	          0.05407420	          0.39979553	          0.08708201	          0.31817073	          0.06943395	          0.25490284	          0.20341650	          0.48575652	          0.01984515	          0.19723195	          0.08265806	          0.66366968	          0.13401107	          0.51588131	          0.12027774	          0.47644071	          0.25858635	          0.70050518	          0.04664104	          0.34807111	          0.02549033	          0.13592139	          0.04015295	          0.12046014	          0.01859016	          0.03336497	          0.14824664	          0.27100785	         -0.00695073	          0.04639278	
          0.17685185	          0.03976481	          0.05664578	          0.02659767	          0.01747721	          0.28666830	          0.00868184	          0.00956101	          0.11197529	          0.00551798	          0.15416227	          0.03534623	          0.23249208	          0.07141768	          0.04338007	          0.56066352	          0.02576840	          0.03001967	          0.47360767	          0.02326434	          0.41925341	          0.05347339	          0.39839464	          0.08619694	          0.31630957	          0.06809580	          0.25302166	          0.20559889	          0.48243088	          0.01991813	          0.19654152	          0.08189948	          0.66054258	          0.13253720	          0.51389170	          0.11825890	          0.47289234	          0.26133467	          0.69688953	          0.04666705	          0.34730147	          0.02504731	          0.13624671	          0.03985669	          0.11872745	          0.01793269	          0.03315097	          0.14986311	          0.26797222	         -0.00683079	          0.04578157	
          0.17777778	          0.03273377	          0.06448672	          0.00801967	          0.01717334	          0.25214171	          0.00657875	          0.02236683	          0.05106932	          0.00087980	          0.11126204	          0.03387835	          0.23096673	          0.06880648	          0.04313794	          0.54370234	          0.02684870	          0.02804132	          0.48026458	          0.02256880	          0.41861581	          0.05287842	          0.39698529	          0.08531816	          0.31446931	          0.06677388	          0.25115436	          0.20778352	          0.47911257	          0.02000095	          0.19586340	          0.08114573	          0.65739223	          0.13107478	          0.51193121	          0.11625909	          0.46936400	          0.26409055	          0.69326898	          0.04670477	          0.34653643	          0.02461112	          0.13657835	          0.03956153	          0.11700740	          0.01728866	          0.03294472	          0.15147649	          0.26495615	         -0.00670287	          0.04519036	
          0.17870370	          0.02935892	          0.03418768	          0.02481172	          0.02245280	          0.19345600	          0.00337008	          0.02865452	          0.16741407	          0.00211822	          0.06976356	          0.03247077	          0.22948426	          0.06634228	          0.04288414	          0.52682117	          0.02794329	          0.02606995	          0.48720390	          0.02188848	          0.41806092	          0.05228933	          0.39556769	          0.08444565	          0.31265104	          0.06546821	          0.24930151	          0.20997004	          0.47580254	          0.02009347	          0.19519833	          0.08039688	          0.65421963	          0.12962381	          0.51000133	          0.11427833	          0.46585688	          0.26685360	          0.68964481	          0.04675405	          0.34577714	          0.02418178	          0.13691574	          0.03926748	          0.11530074	          0.01665810	          0.03274614	          0.15308649	          0.26196027	         -0.00656710	          0.04461952	
          0.17962962	          0.00196378	          0.05654801	          0.00580234	          0.02405362	          0.11196756	          0.01247459	          0.02659197	          0.30901086	          0.00566323	          0.03500264	          0.03112393	          0.22804544	          0.06402273	          0.04261929	          0.51004569	          0.02905009	          0.02410934	          0.49440568	          0.02122484	          0.41758762	          0.05170607	          0.39414164	          0.08357938	          0.31085563	          0.06417868	          0.24746358	          0.21215816	          0.47250232	          0.02019558	          0.19454725	          0.07965290	          0.65102533	          0.12818416	          0.50810334	          0.11231643	          0.46237208	          0.26962347	          0.68601872	          0.04681473	          0.34502469	          0.02375924	          0.13725796	          0.03897459	          0.11360791	          0.01604094	          0.03255509	          0.15469284	          0.25898592	         -0.00642357	          0.04406981	
          0.18055555	          0.01555158	          0.01678695	          0.02311064	          0.01557311	          0.05585388	          0.02274064	          0.01789187	          0.08618556	          0.00556044	          0.01993278	          0.02983808	          0.22665107	          0.06184530	          0.04234405	          0.49340083	          0.03016713	          0.02216345	          0.50184919	          0.02057933	          0.41719443	          0.05112868	          0.39270711	          0.08271936	          0.30908391	          0.06290525	          0.24564122	          0.21434774	          0.46921283	          0.02030714	          0.19391097	          0.07891387	          0.64781007	          0.12675581	          0.50623845	          0.11037334	          0.45891088	          0.27239997	          0.68239188	          0.04688669	          0.34428020	          0.02334350	          0.13760415	          0.03868290	          0.11192937	          0.01543717	          0.03237155	          0.15629550	          0.25603378	         -0.00627241	          0.04354174	
          0.18148148	          0.00599873	          0.13697041	          0.01543377	          0.00606656	          0.01299475	          0.01519331	          0.00644736	          0.08466295	          0.00173008	          0.07535248	          0.02861335	          0.22530199	          0.05980729	          0.04205920	          0.47691077	          0.03129262	          0.02023643	          0.50951309	          0.01995343	          0.41687952	          0.05055716	          0.39126423	          0.08186560	          0.30733678	          0.06164788	          0.24383491	          0.21653841	          0.46593556	          0.02042801	          0.19329038	          0.07817979	          0.64457491	          0.12533876	          0.50440800	          0.10844900	          0.45547444	          0.27518268	          0.67876607	          0.04696977	          0.34354481	          0.02293453	          0.13795355	          0.03839244	          0.11026555	          0.01484676	          0.03219539	          0.15789415	          0.25310504	         -0.00611374	          0.04303595	
          0.18240741	          0.00018667	          0.14611803	          0.01749003	          0.01074066	          0.02838217	          0.01846565	          0.00590934	          0.01669837	          0.00952913	          0.12607008	          0.02744967	          0.22399910	          0.05790583	          0.04176558	          0.46059885	          0.03242486	          0.01833262	          0.51737534	          0.01934861	          0.41664073	          0.04999151	          0.38981283	          0.08101805	          0.30561507	          0.06040652	          0.24204522	          0.21872996	          0.46267155	          0.02055809	          0.19268624	          0.07745070	          0.64132023	          0.12393289	          0.50261317	          0.10654335	          0.45206393	          0.27797129	          0.67514256	          0.04706381	          0.34281962	          0.02253232	          0.13830543	          0.03810322	          0.10861696	          0.01426969	          0.03202651	          0.15948862	          0.25020054	         -0.00594764	          0.04255287	
          0.18333334	          0.00198824	          0.07666199	          0.03268004	          0.04403172	          0.05923497	          0.04199116	          0.02298422	          0.01958278	          0.01174241	          0.05321447	          0.02634685	          0.22274337	          0.05613793	          0.04146412	          0.44448753	          0.03356230	          0.01645658	          0.52541332	          0.01876634	          0.41647557	          0.04943173	          0.38835299	          0.08017676	          0.30391976	          0.05918113	          0.24027269	          0.22092222	          0.45942199	          0.02069721	          0.19209935	          0.07672662	          0.63804707	          0.12253820	          0.50085531	          0.10465629	          0.44868043	          0.28076562	          0.67152272	          0.04716868	          0.34210561	          0.02213683	          0.13865891	          0.03781531	          0.10698421	          0.01370596	          0.03186494	          0.16107881	          0.24732126	         -0.00577426	          0.04209308	
          0.18425925	          0.00789220	          0.01259115	          0.02830064	          0.06115663	          0.08950764	          0.05145771	          0.03450323	          0.03181550	          0.00556291	          0.07997267	          0.02530452	          0.22153587	          0.05450043	          0.04115579	          0.42859836	          0.03470352	          0.01461305	          0.53360386	          0.01820810	          0.41638124	          0.04887784	          0.38688475	          0.07934169	          0.30225164	          0.05797165	          0.23851778	          0.22311473	          0.45618802	          0.02084527	          0.19153059	          0.07600761	          0.63475609	          0.12115465	          0.49913554	          0.10278780	          0.44532511	          0.28356512	          0.66790804	          0.04728422	          0.34140396	          0.02174806	          0.13901341	          0.03752872	          0.10536774	          0.01315550	          0.03171045	          0.16266434	          0.24446800	         -0.00559369	          0.04165721	
